HIERARCHY
ROOT Hips
{
    OFFSET 0.0 0.0 0.0
    CHANNELS 6 Xposition Yposition Zposition Zrotation Xrotation Yrotation
    JOINT LeftHipJoint
    {
        OFFSET 0.1 0.0 0.0
        CHANNELS 3 Zrotation Xrotation Yrotation
        JOINT LeftUpLeg
        {
            OFFSET 121.19066517432563 0.0 0.0
            CHANNELS 3 Zrotation Xrotation Yrotation
            JOINT LeftLeg
            {
                OFFSET 0.0 0.0 -408.2911185623649
                CHANNELS 3 Zrotation Xrotation Yrotation
                JOINT LeftFoot
                {
                    OFFSET 0.0 0.0 -386.7523178284848
                    CHANNELS 3 Zrotation Xrotation Yrotation
                    End Site
                    {
                        OFFSET 0.0 -0.1 0.0
                    }
                }
            }
        }
    }
    JOINT LowerBack
    {
        OFFSET 0.0 0.0 0.1
        CHANNELS 3 Zrotation Xrotation Yrotation
        JOINT Spine
        {
            OFFSET 0.0 0.0 214.73903840997082
            CHANNELS 3 Zrotation Xrotation Yrotation
            JOINT Spine1
            {
                OFFSET 0.0 0.0 255.13940980904067
                CHANNELS 3 Zrotation Xrotation Yrotation
                JOINT LeftShoulder
                {
                    OFFSET 0.1 0.0 0.0
                    CHANNELS 3 Zrotation Xrotation Yrotation
                    JOINT LeftArm
                    {
                        OFFSET 143.11956245678795 0.0 0.0
                        CHANNELS 3 Zrotation Xrotation Yrotation
                        JOINT LeftForeArm
                        {
                            OFFSET 257.1108596758364 0.0 0.0
                            CHANNELS 3 Zrotation Xrotation Yrotation
                            JOINT LeftHand
                            {
                                OFFSET 241.50836837976738 0.0 0.0
                                CHANNELS 3 Zrotation Xrotation Yrotation
                                End Site
                                {
                                    OFFSET 0.1 0.0 0.0
                                }
                            }
                        }
                    }
                }
                JOINT Neck
                {
                    OFFSET 0.0 0.0 0.1
                    CHANNELS 3 Zrotation Xrotation Yrotation
                    JOINT Neck1
                    {
                        OFFSET 0.0 0.0 107.17075900041323
                        CHANNELS 3 Zrotation Xrotation Yrotation
                        End Site
                        {
                            OFFSET 0.0 0.0 115.16231275564213
                        }
                    }
                }
                JOINT RightShoulder
                {
                    OFFSET -0.1 0.0 0.0
                    CHANNELS 3 Zrotation Xrotation Yrotation
                    JOINT RightArm
                    {
                        OFFSET -143.11956245678795 0.0 0.0
                        CHANNELS 3 Zrotation Xrotation Yrotation
                        JOINT RightForeArm
                        {
                            OFFSET -257.1108596758364 0.0 0.0
                            CHANNELS 3 Zrotation Xrotation Yrotation
                            JOINT RightHand
                            {
                                OFFSET -241.50836837976738 0.0 0.0
                                CHANNELS 3 Zrotation Xrotation Yrotation
                                End Site
                                {
                                    OFFSET -0.1 0.0 0.0
                                }
                            }
                        }
                    }
                }
            }
        }
    }
    JOINT RightHipJoint
    {
        OFFSET -0.1 0.0 0.0
        CHANNELS 3 Zrotation Xrotation Yrotation
        JOINT RightUpLeg
        {
            OFFSET -121.19066517432563 0.0 0.0
            CHANNELS 3 Zrotation Xrotation Yrotation
            JOINT RightLeg
            {
                OFFSET 0.0 0.0 -408.2911185623649
                CHANNELS 3 Zrotation Xrotation Yrotation
                JOINT RightFoot
                {
                    OFFSET 0.0 0.0 -386.7523178284848
                    CHANNELS 3 Zrotation Xrotation Yrotation
                    End Site
                    {
                        OFFSET 0.0 -0.1 0.0
                    }
                }
            }
        }
    }
}
MOTION
Frames: 7
Frame Time: 0.03333333333333333
0.0 0.0 808.5597329188424 16.344669646056442 -7.592911340041189 5.940563314575512 0.0 1.5902773407317584e-15 0.0 0.04500095237662344 0.4150872984943818 -2.423669012399038 1.5562289173509336 24.23027307764679 -1.1031967606809643 0.0 9.93923337957349e-17 0.0 0.0 1.5902773407317584e-15 0.0 -0.5038544508864352 -4.880539029815793 -7.370645526501058 -5.109605718408762 -1.1595973662434326e-15 3.462244759911216e-16 0.0 -1.5902773407317582e-15 0.0 -33.94411883851023 -62.8756997584155 7.371091151598072 -101.3814226652905 -8.83620718846423e-15 9.290063178011755e-15 -3.1805546814635168e-15 0.0 0.0 0.0 -1.5902773407317582e-15 0.0 4.765028727647596 0.16895240324302405 -12.5877183104297 0.0 -1.5902773407317582e-15 0.0 13.33419926655864 21.503307875969263 -75.66176327829211 22.20727181032964 -8.137998941757787e-15 8.07960632005561e-15 0.0 0.0 -1.5902773407317584e-15 0.0 1.5902773407317584e-15 0.0 -0.4688852987761585 -4.518893929030153 -6.292503943229012 -0.20791996286069947 28.003858923834255 0.7753220886721305 -3.1805546814635168e-15 -3.1805546814635168e-15 3.975693351829395e-16
0.0 0.0 808.5597329188424 16.376809441008962 -7.541494102516179 5.882778641750803 2.758691436281349e-33 1.5902773407317584e-15 -1.987846675914698e-16 0.01325664838846678 0.10793140080351755 -2.382037935105441 1.5940691100975288 24.574187699746737 -1.0112079652099153 0.0 0.0 3.975693351829396e-16 2.758691436281349e-33 1.5902773407317584e-15 -1.987846675914698e-16 -0.5092135914898281 -4.943646527006164 -7.2005561816076264 -4.745439410124319 1.431448046316028e-15 -9.354634957268034e-16 0.0 0.0 3.975693351829396e-16 -34.01986162369366 -62.22679534269563 7.768941884573898 -101.64141419489425 5.8432929548778045e-15 -1.296821071231746e-14 0.0 0.0 0.0 0.0 0.0 3.975693351829396e-16 4.908480722368233 0.10236124619813936 -12.123890490294098 0.0 0.0 3.975693351829396e-16 14.136313794253267 21.215486513758453 -76.15293219038458 21.954949543391614 -1.6655401638768739e-15 -8.58648252085628e-15 0.0 0.0 -2.3854160110976376e-15 2.758691436281349e-33 1.5902773407317584e-15 -1.987846675914698e-16 -0.5091946290245761 -4.919803041944288 -6.243609753239225 -0.19544477476143518 29.019962557827153 0.7370033367243157 -1.0862347530357812e-32 -3.1308585145656493e-15 -3.975693351829396e-16
0.0 0.0 808.5597329188424 16.40718618037365 -7.570471304399507 5.736354030561086 0.0 0.0 -9.93923337957349e-16 0.032149037352082514 0.29625227063996384 -2.2252694076103423 1.613177825146998 24.521990171026168 -1.037926508612715 0.0 -3.0811623476677818e-15 0.0 0.0 0.0 -9.93923337957349e-16 -0.49927390606460725 -4.93766171218906 -7.033440097940594 -4.8466450094352185 -1.0594963625172822e-15 3.5308710682308907e-16 0.0 0.0 1.987846675914698e-16 -33.97931348557899 -61.974744476961035 7.874881264865426 -101.33548639281825 -3.912269230323898e-15 5.261828942204764e-15 0.0 0.0 0.0 0.0 0.0 1.987846675914698e-16 4.933363184185059 -0.0987016692284813 -12.229242725708962 0.0 0.0 1.987846675914698e-16 14.366232795851989 21.30049591881341 -76.2334774567129 21.886472424969224 3.3774584632886843e-15 -1.6040483596233235e-14 0.0 0.0 1.5902773407317584e-15 0.0 0.0 -9.93923337957349e-16 -0.4923435634781512 -4.844325762968185 -6.139015342147384 -0.19613747675821155 28.88231296162133 0.9186095566916362 -1.7241821476758432e-34 4.969616689786745e-17 3.975693351829396e-16
0.0 0.0 808.5597329188424 16.626618566692805 -7.806285784540371 5.815206800066904 -3.1805546814635168e-15 1.5902773407317584e-15 4.4139062980501586e-32 0.06645992327929531 0.6369000813313909 -2.248771854285305 1.5997911878476363 24.521252713761303 -1.098016455749867 -3.4483642953516864e-34 -9.939233379573489e-17 -3.9756933518293955e-16 -3.1805546814635168e-15 1.5902773407317584e-15 4.4139062980501586e-32 -0.47894428471009703 -4.742392211900357 -7.045397007471071 -4.820399045735245 -4.881624432519513e-16 -2.1950779827105512e-16 0.0 0.0 0.0 -34.008487236841106 -62.044019581014005 7.830449597640189 -101.46425262169736 -8.984962511167255e-16 8.950984814028293e-15 3.1805546814635168e-15 0.0 0.0 0.0 0.0 0.0 5.079440684764124 -0.46242840893709086 -12.15427237315134 0.0 0.0 0.0 15.136712272649808 21.313246117725882 -76.44368058391977 22.19005059324045 2.6620663891954693e-15 -2.95288675151897e-15 0.0 0.0 -3.1805546814635168e-15 -3.1805546814635168e-15 1.5902773407317584e-15 4.4139062980501586e-32 -0.481392737386543 -4.741070668025854 -6.1594200403311135 -0.2114474830308826 28.91958408776416 0.8570213323769359 0.0 0.0 0.0
0.0 0.0 808.5597329188424 16.48186639134113 -7.6880407889120335 5.715314506113537 -3.1805546814635168e-15 1.6896696745274934e-15 4.689775441678294e-32 0.0513166788939824 0.5122802549947664 -2.202086141694036 1.5017698500083143 24.58869610524318 -0.8543139504287613 3.1805546814635168e-15 -9.93923337957349e-17 -3.975693351829396e-16 -3.1805546814635168e-15 1.6896696745274934e-15 4.689775441678294e-32 -0.47086744825053156 -4.893465628357335 -6.906675740443839 -4.891373275195762 2.597567271475896e-15 9.068088930207411e-16 0.0 0.0 -1.987846675914698e-16 -33.6774283118342 -61.45816337114079 8.129547463747897 -101.34247625189495 8.062951050638065e-15 9.840918131124066e-15 0.0 0.0 0.0 0.0 0.0 -1.987846675914698e-16 4.734901166110235 0.06125348350309748 -12.17498728819959 0.0 0.0 -1.987846675914698e-16 15.370859691087853 21.447139675660257 -76.51022491379332 22.06499439035895 3.8285300605219875e-16 -1.4656633150678603e-14 0.0 0.0 7.951386703658792e-16 -3.1805546814635168e-15 1.6896696745274934e-15 4.689775441678294e-32 -0.45674061470820615 -4.722140161989229 -6.044133211109644 -0.2981312752235301 28.93445539425282 0.9196852942138926 0.0 0.0 0.0
0.0 0.0 808.5597329188424 16.45678566935397 -7.570782367846084 5.628349439669787 0.0 0.0 0.0 0.048442322390243826 0.4821855050208432 -2.1464285164070227 1.5280332020975247 24.56972368530678 -0.8719789205740108 6.896728590703373e-34 -9.93923337957349e-17 7.951386703658792e-16 0.0 0.0 0.0 -0.4778374652085937 -4.96149197915347 -6.902174878872328 -4.907284392406577 4.3933732878904684e-15 7.851587567226264e-16 0.0 0.0 1.987846675914698e-16 -33.43041217878474 -61.635516631349745 8.01514423186528 -101.53405997125502 -6.83695208890861e-15 1.174188117919969e-14 -3.1805546814635164e-15 -6.361109362927033e-15 -1.7655625192200634e-31 0.0 0.0 1.987846675914698e-16 4.7231346209496765 -0.42486143641442053 -12.004491649884434 0.0 0.0 1.987846675914698e-16 15.59704735638847 21.489928988769073 -76.5308310557872 22.381147415471926 -7.715745848350314e-16 -3.900103881669962e-15 0.0 0.0 1.5902773407317582e-15 0.0 0.0 0.0 -0.4622398365570745 -4.775362390437699 -5.922492906322278 -0.2307947225285388 29.213359104770227 0.9195937568677058 0.0 0.0 0.0
0.0 0.0 808.5597329188424 16.650543537578564 -7.951594624583361 5.586621275689659 0.0 0.0 -1.987846675914698e-16 0.08436619803176307 0.8773402927739805 -2.1760966795689813 1.4390770870968683 24.36167664988922 -0.8582194162203737 -3.4483642953516864e-34 9.93923337957349e-17 3.975693351829396e-16 0.0 0.0 -1.987846675914698e-16 -0.44408725691831613 -4.7285033115423545 -6.8028958011083525 -4.8702863357734865 -2.7308209021043065e-15 -1.1613328016045372e-16 0.0 0.0 0.0 -32.88151480497683 -61.86489928786483 8.458292107981519 -101.62095226896983 -6.9399947247947125e-15 1.5543852896624524e-15 3.1805546814635168e-15 0.0 0.0 0.0 0.0 0.0 4.8394597364164875 -0.5720430073603678 -12.396280246945038 0.0 0.0 0.0 15.297793424606814 21.77308048113333 -76.53287462126012 22.99042118972172 6.338400868625709e-16 3.116757100908818e-15 3.1805546814635168e-15 -1.1034765745125397e-32 -3.975693351829396e-16 0.0 0.0 -1.987846675914698e-16 -0.4114281755093039 -4.35623461516385 -5.912452781860875 -0.29620301518091974 28.720255200615068 1.1667936692761613 0.0 0.0 -3.975693351829396e-16
